<?xml version="1.0" encoding="utf-8"?>
<!-- Generator: Adobe Illustrator 21.0.0, SVG Export Plug-In . SVG Version: 6.00 Build 0)  -->
<svg version="1.1" id="Layer_1" xmlns="http://www.w3.org/2000/svg" xmlns:xlink="http://www.w3.org/1999/xlink" x="0px" y="0px"
	 viewBox="0 0 40 40" style="enable-background:new 0 0 40 40;" xml:space="preserve">
<style type="text/css">
	.st0{fill:#FFFFFF;}
</style>
<g>
	<g>
		<path class="st0" d="M39.4,0.6v38.7H10.3v-9.7h19.4V20H10.3v-9.7h19.4V0.6H39.4 M40,0h-0.6h-9.7h-0.6v0.6v9.1H10.3H9.7v0.6V20v0.6
			h0.6h18.7v8.4H10.3H9.7v0.6v9.7V40h0.6h29.1H40v-0.6V0.6V0L40,0z"/>
		<g>
			<polygon class="st0" points="29.7,10.3 29.7,0.6 0.6,0.6 0.6,39.4 10.3,39.4 10.3,29.7 29.7,29.7 29.7,20 10.3,20 10.3,10.3 			
				"/>
			<path class="st0" d="M29.7,0.6v9.7H10.3V20h19.4v9.7H10.3v9.7H0.6V0.6H29.7"/>
		</g>
	</g>
</g>
</svg>
